<?xml version="1.0" encoding="UTF-8"?>
<svg xmlns="http://www.w3.org/2000/svg" viewBox="0 0 924 524" width="924" height="524">
  <title>Jezioro Czorsztynskie - border</title>
    <defs>
    <mask id="lakeMask">
      <rect width="924" height="524" fill="white"/>
      <circle cx="577.45" cy="277.61" r="24" fill="black"/>
    </mask>
  </defs>
  <path mask="url(#lakeMask)" d="M 40.00,92.54 C 41.38,95.37 45.27,106.61 48.28,109.52 C 51.28,112.44 55.99,108.07 58.03,110.04 C 60.06,112.01 60.66,119.12 60.47,121.34 C 60.27,123.57 55.42,120.79 56.85,123.39 C 58.28,126.00 67.75,133.78 69.03,137.00 C 70.30,140.22 61.69,142.41 64.50,142.71 C 67.31,143.01 82.14,138.44 85.90,138.80 C 89.66,139.17 84.74,142.42 87.07,144.89 C 89.39,147.36 91.98,150.66 99.85,153.64 C 107.72,156.63 122.59,156.27 134.28,162.79 C 145.96,169.32 160.63,183.02 169.94,192.78 C 179.25,202.54 187.48,212.59 190.15,221.37 C 192.81,230.14 186.13,239.77 185.95,245.42 C 185.76,251.06 186.93,252.92 189.05,255.24 C 191.16,257.55 197.86,256.77 198.64,259.31 C 199.42,261.84 185.33,267.52 193.74,270.44 C 202.15,273.35 234.07,272.80 249.11,276.78 C 264.15,280.77 271.63,289.80 283.96,294.35 C 296.30,298.91 313.88,300.84 323.14,304.09 C 332.40,307.34 337.43,311.35 339.54,313.86 C 341.65,316.38 334.68,318.30 335.78,319.18 C 336.88,320.07 339.14,315.68 346.14,319.18 C 353.14,322.68 367.80,336.82 377.79,340.16 C 387.78,343.51 400.89,338.69 406.10,339.25 C 411.31,339.81 407.81,345.82 409.05,343.54 C 410.29,341.25 410.91,328.98 413.53,325.53 C 416.15,322.08 421.88,322.15 424.76,322.84 C 427.64,323.54 429.13,329.75 430.80,329.72 C 432.46,329.69 431.34,324.13 434.74,322.65 C 438.15,321.17 445.87,320.50 451.23,320.83 C 456.60,321.17 461.37,320.83 466.95,324.66 C 472.53,328.49 480.36,340.55 484.74,343.79 C 489.11,347.04 487.97,341.03 493.20,344.12 C 498.43,347.21 506.42,357.67 516.11,362.35 C 525.81,367.03 544.94,371.41 551.37,372.19 C 557.80,372.98 552.51,367.93 554.70,367.06 C 556.89,366.19 562.93,367.84 564.51,366.98 C 566.09,366.12 560.38,362.70 564.20,361.90 C 568.01,361.10 577.81,360.80 587.39,362.21 C 596.97,363.62 609.90,370.01 621.68,370.36 C 633.45,370.70 652.48,363.35 658.04,364.28 C 663.60,365.20 654.60,372.16 655.05,375.91 C 655.49,379.67 662.27,383.91 660.71,386.81 C 659.15,389.72 655.88,391.26 645.69,393.35 C 635.50,395.44 609.44,396.84 599.56,399.34 C 589.67,401.84 584.46,407.08 586.39,408.34 C 588.32,409.60 602.58,406.19 611.14,406.88 C 619.69,407.57 631.79,412.40 637.72,412.48 C 643.65,412.57 645.21,407.52 646.72,407.40 C 648.22,407.29 645.37,410.69 646.73,411.80 C 648.08,412.92 647.65,413.16 654.86,414.09 C 662.07,415.03 682.63,414.59 689.99,417.42 C 697.36,420.24 697.08,430.35 699.05,431.04 C 701.02,431.73 700.04,423.08 701.80,421.55 C 703.57,420.02 705.99,419.75 709.63,421.86 C 713.28,423.97 716.87,431.14 723.67,434.21 C 730.47,437.28 742.34,436.75 750.43,440.29 C 758.51,443.83 766.14,453.67 772.16,455.44 C 778.18,457.22 782.41,450.80 786.55,450.96 C 790.69,451.12 795.06,454.67 797.02,456.42 C 798.99,458.17 798.99,459.99 798.35,461.44 C 797.71,462.89 793.21,461.46 793.19,465.11 C 793.18,468.76 796.78,480.21 798.26,483.36 C 799.75,486.51 795.70,483.98 802.11,484.00 C 808.51,484.02 829.61,486.23 836.70,483.48 C 843.78,480.73 844.02,472.09 844.61,467.52 C 845.19,462.95 843.45,460.55 840.22,456.05 C 836.99,451.56 828.58,445.12 825.24,440.57 C 821.89,436.03 820.68,431.95 820.18,428.79 C 819.67,425.63 811.57,425.82 822.21,421.59 C 832.85,417.36 883.11,406.24 884.00,403.40 C 884.89,400.56 840.17,402.85 827.55,404.53 C 814.93,406.21 812.33,414.93 808.29,413.47 C 804.25,412.00 802.30,401.30 803.33,395.74 C 804.36,390.18 816.49,384.81 814.47,380.11 C 812.44,375.42 794.83,371.07 791.20,367.57 C 787.57,364.08 803.55,362.84 792.68,359.13 C 781.80,355.42 736.62,349.93 725.94,345.33 C 715.26,340.73 725.19,334.98 728.61,331.54 C 732.02,328.09 746.51,325.77 746.43,324.65 C 746.35,323.53 733.53,323.30 728.10,324.81 C 722.68,326.31 716.38,335.93 713.88,333.69 C 711.37,331.46 716.07,312.76 713.06,311.42 C 710.05,310.09 702.72,323.58 695.83,325.68 C 688.95,327.79 678.16,328.56 671.74,324.06 C 665.31,319.56 656.90,306.68 657.28,298.70 C 657.66,290.71 673.20,279.76 674.02,276.16 C 674.84,272.56 664.71,280.02 662.20,277.10 C 659.69,274.18 660.41,262.70 658.95,258.63 C 657.49,254.55 655.94,254.07 653.45,252.67 C 650.96,251.27 645.80,249.76 644.00,250.23 C 642.20,250.71 642.37,253.02 642.63,255.54 C 642.90,258.06 646.05,261.44 645.58,265.34 C 645.10,269.25 640.25,274.59 639.78,278.97 C 639.30,283.35 642.94,284.94 642.72,291.61 C 642.49,298.27 643.05,312.84 638.42,318.97 C 633.79,325.10 621.25,327.58 614.94,328.37 C 608.64,329.16 603.07,326.76 600.60,323.71 C 598.12,320.66 604.65,316.60 600.09,310.07 C 595.52,303.53 578.38,288.60 573.20,284.51 C 568.01,280.41 570.93,286.69 568.95,285.51 C 566.98,284.32 562.67,279.98 561.35,277.38 C 560.03,274.78 562.37,270.77 561.03,269.90 C 559.68,269.03 558.01,273.41 553.28,272.17 C 548.55,270.93 537.59,267.23 532.62,262.48 C 527.66,257.73 526.35,245.37 523.51,243.66 C 520.68,241.94 518.78,251.45 515.62,252.20 C 512.45,252.94 506.46,255.59 504.52,248.12 C 502.58,240.64 505.29,213.54 503.98,207.36 C 502.67,201.18 498.50,210.92 496.66,211.05 C 494.81,211.18 494.30,205.97 492.92,208.14 C 491.53,210.30 491.28,219.64 488.35,224.04 C 485.43,228.43 477.37,229.13 475.39,234.51 C 473.41,239.90 483.08,252.37 476.47,256.34 C 469.85,260.32 446.13,260.05 435.71,258.38 C 425.29,256.71 415.91,248.42 413.94,246.32 C 411.97,244.22 424.53,248.41 423.89,245.77 C 423.25,243.13 420.85,236.02 410.11,230.47 C 399.37,224.91 369.44,218.02 359.45,212.43 C 349.45,206.85 348.96,201.21 350.14,196.95 C 351.32,192.69 363.88,189.34 366.51,186.89 C 369.14,184.44 367.56,182.73 365.90,182.25 C 364.24,181.76 358.88,185.02 356.54,183.98 C 354.20,182.94 352.24,176.16 351.86,175.99 C 351.48,175.82 354.65,181.06 354.26,182.96 C 353.88,184.87 351.21,188.10 349.53,187.41 C 347.84,186.72 347.77,181.16 344.16,178.82 C 340.55,176.48 330.54,174.97 327.87,173.39 C 325.20,171.81 329.13,169.30 328.13,169.35 C 327.13,169.40 325.53,173.70 321.89,173.70 C 318.25,173.70 310.17,171.46 306.29,169.33 C 302.40,167.21 299.43,164.79 298.58,160.96 C 297.73,157.13 307.81,156.91 301.18,146.37 C 294.55,135.83 274.67,109.73 258.80,97.70 C 242.93,85.67 222.63,79.27 205.97,74.19 C 189.31,69.11 167.32,69.81 158.84,67.21 C 150.36,64.61 163.46,60.98 155.09,58.61 C 146.72,56.23 117.32,54.72 108.62,52.98 C 99.92,51.24 104.41,48.24 102.90,48.17 C 101.40,48.10 97.85,50.93 99.58,52.55 C 101.30,54.18 111.31,56.39 113.26,57.92 C 115.21,59.45 110.65,60.15 111.27,61.74 C 111.88,63.34 123.25,71.11 116.94,67.49 C 110.63,63.86 81.58,44.20 73.40,40.00 C 65.23,35.80 67.34,40.17 67.89,42.30 C 68.45,44.44 76.56,49.12 76.74,52.80 C 76.92,56.48 68.28,61.76 68.98,64.39 C 69.68,67.03 79.69,66.40 80.95,68.60 C 82.21,70.80 80.18,76.42 76.55,77.59 C 72.92,78.77 65.26,73.16 59.17,75.65 C 53.07,78.14 43.19,89.73 40.00,92.54 C 36.81,95.36 38.62,89.71 40.00,92.54 Z"
        fill="none"
        stroke="#ffffff"
        stroke-width="8"
        stroke-linejoin="round"
        stroke-linecap="round"/>
  <circle cx="577.45" cy="277.61" r="24" fill="none" stroke="#379cf4" stroke-width="6"/>
</svg>