<?xml version="1.0" encoding="UTF-8"?>
<svg xmlns="http://www.w3.org/2000/svg" viewBox="0 0 924 524" width="924" height="524">
  <title>Jezioro Mucharskie - border</title>
  <defs>
    <mask id="lakeMask">
      <rect width="924" height="524" fill="white"/>
      <circle cx="264.99" cy="220.45" r="24" fill="black"/>
    </mask>
  </defs>
  <path mask="url(#lakeMask)" d="M 40.00,159.78 C 48.60,159.77 74.10,157.87 91.57,159.72 C 109.04,161.56 135.10,166.29 144.84,170.83 C 154.57,175.36 150.62,183.36 149.97,186.93 C 149.31,190.51 140.85,191.86 140.89,192.26 C 140.93,192.66 149.08,188.24 150.21,189.35 C 151.35,190.46 147.40,197.49 147.71,198.92 C 148.03,200.36 151.17,196.57 152.11,197.95 C 153.05,199.33 153.02,207.96 153.37,207.21 C 153.71,206.46 153.02,197.33 154.16,193.47 C 155.30,189.60 156.90,186.45 160.23,184.04 C 163.55,181.63 165.89,175.22 174.14,179.01 C 182.39,182.81 198.74,200.76 209.72,206.80 C 220.70,212.84 234.22,212.88 240.02,215.27 C 245.81,217.66 241.37,220.35 244.48,221.12 C 247.60,221.90 256.38,219.41 258.70,219.94 C 261.02,220.47 256.77,224.83 258.40,224.29 C 260.04,223.76 267.62,216.55 268.50,216.72 C 269.39,216.89 262.38,223.66 263.70,225.33 C 265.02,227.01 270.71,228.02 276.40,226.76 C 282.10,225.50 291.42,218.55 297.86,217.78 C 304.29,217.00 311.16,222.59 315.01,222.11 C 318.87,221.64 319.11,214.40 321.02,214.95 C 322.92,215.49 324.97,224.55 326.46,225.39 C 327.94,226.23 328.30,219.84 329.90,219.98 C 331.51,220.12 334.18,226.05 336.09,226.22 C 338.00,226.39 338.90,221.46 341.38,221.02 C 343.86,220.57 349.18,222.21 350.97,223.52 C 352.77,224.84 354.00,227.20 352.13,228.91 C 350.27,230.62 339.66,233.53 339.77,233.78 C 339.87,234.03 351.19,229.95 352.74,230.41 C 354.28,230.87 348.34,234.49 349.03,236.52 C 349.72,238.56 355.25,242.99 356.89,242.62 C 358.54,242.25 357.10,233.84 358.90,234.31 C 360.70,234.79 365.20,243.62 367.70,245.47 C 370.19,247.32 372.77,246.47 373.86,245.42 C 374.96,244.38 375.28,241.09 374.29,239.23 C 373.31,237.36 367.87,237.20 367.95,234.21 C 368.04,231.22 374.11,225.07 374.79,221.30 C 375.47,217.52 371.94,212.52 372.01,211.55 C 372.08,210.57 373.55,215.12 375.20,215.45 C 376.84,215.79 381.84,214.19 381.90,213.55 C 381.96,212.92 378.11,214.92 375.55,211.65 C 372.98,208.38 371.35,199.86 366.53,193.93 C 361.71,188.01 335.82,180.21 346.60,176.08 C 357.39,171.94 404.76,175.81 431.22,169.12 C 457.69,162.44 490.84,138.38 505.40,135.95 C 519.96,133.51 514.82,151.00 518.58,154.52 C 522.35,158.04 517.98,148.30 527.98,157.05 C 537.98,165.81 570.54,194.04 578.60,207.07 C 586.66,220.09 569.71,228.25 576.31,235.21 C 582.92,242.17 609.11,247.46 618.22,248.82 C 627.32,250.18 626.65,243.35 630.94,243.36 C 635.23,243.38 641.49,246.05 643.96,248.92 C 646.43,251.79 643.52,256.45 645.74,260.60 C 647.96,264.76 658.25,271.89 657.27,273.88 C 656.28,275.87 642.77,270.41 639.81,272.55 C 636.85,274.68 635.87,283.70 639.51,286.70 C 643.16,289.70 659.96,288.60 661.71,290.54 C 663.46,292.48 653.31,293.96 650.01,298.33 C 646.72,302.70 641.17,312.70 641.94,316.75 C 642.71,320.80 652.13,320.65 654.61,322.63 C 657.09,324.61 652.63,327.41 656.84,328.63 C 661.05,329.84 664.34,324.50 679.85,329.92 C 695.37,335.35 738.37,353.42 749.94,361.19 C 761.50,368.95 752.90,371.08 749.23,376.54 C 745.57,381.99 738.37,387.31 727.96,393.91 C 717.55,400.51 696.66,408.76 686.76,416.16 C 676.87,423.56 671.46,432.78 668.57,438.29 C 665.69,443.80 665.22,444.36 669.44,449.24 C 673.67,454.12 692.01,461.75 693.93,467.54 C 695.85,473.34 680.22,483.48 680.96,484.00 C 681.70,484.52 682.99,471.77 698.37,470.65 C 713.75,469.53 771.06,478.81 773.23,477.28 C 775.40,475.76 721.42,467.42 711.39,461.48 C 701.36,455.54 709.98,448.19 713.04,441.63 C 716.09,435.07 715.74,430.17 729.75,422.10 C 743.76,414.04 783.16,400.36 797.09,393.25 C 811.01,386.13 810.35,385.58 813.29,379.41 C 816.23,373.24 819.48,367.34 814.71,356.25 C 809.93,345.16 788.95,325.79 784.64,312.88 C 780.34,299.98 785.58,287.17 788.88,278.82 C 792.18,270.46 794.69,269.43 804.45,262.75 C 814.21,256.08 838.81,242.55 847.43,238.78 C 856.05,235.00 852.20,241.22 856.16,240.12 C 860.12,239.03 869.29,240.00 871.21,232.21 C 873.13,224.42 865.55,203.94 867.68,193.38 C 869.81,182.82 883.21,171.63 884.00,168.85 C 884.79,166.07 875.69,172.13 872.41,176.70 C 869.13,181.27 865.51,188.12 864.33,196.29 C 863.16,204.46 867.34,220.94 865.35,225.71 C 863.35,230.48 860.55,223.33 852.36,224.92 C 844.17,226.50 827.33,235.45 816.20,235.25 C 805.07,235.04 796.06,223.59 785.58,223.69 C 775.09,223.78 761.73,233.85 753.28,235.84 C 744.84,237.84 741.47,237.84 734.92,235.66 C 728.36,233.47 717.75,226.09 713.95,222.73 C 710.14,219.37 711.23,216.72 712.09,215.50 C 712.95,214.27 718.77,215.75 719.11,215.39 C 719.45,215.02 714.35,214.18 714.13,213.30 C 713.90,212.43 718.28,210.67 717.76,210.13 C 717.25,209.59 710.34,210.82 711.03,210.04 C 711.71,209.26 722.47,206.49 721.89,205.43 C 721.31,204.38 709.63,205.25 707.54,203.71 C 705.46,202.16 707.67,197.66 709.36,196.17 C 711.05,194.69 718.05,195.62 717.67,194.80 C 717.30,193.98 708.75,194.25 707.11,191.25 C 705.46,188.25 710.58,177.83 707.81,176.82 C 705.04,175.82 695.92,184.97 690.50,185.20 C 685.09,185.42 679.77,179.08 675.33,178.17 C 670.88,177.26 665.97,180.23 663.85,179.75 C 661.73,179.28 664.85,174.85 662.62,175.34 C 660.38,175.82 655.80,181.43 650.44,182.65 C 645.08,183.87 638.98,183.47 630.46,182.65 C 621.95,181.82 606.99,180.02 599.34,177.69 C 591.68,175.35 588.18,172.73 584.55,168.62 C 580.93,164.51 577.82,155.98 577.59,153.05 C 577.36,150.11 584.65,152.82 583.17,151.00 C 581.69,149.18 570.66,146.14 568.72,142.11 C 566.77,138.08 571.87,130.20 571.49,126.83 C 571.11,123.45 566.81,123.74 566.42,121.86 C 566.03,119.99 569.48,119.71 569.15,115.57 C 568.81,111.43 564.64,100.29 564.39,97.04 C 564.13,93.78 567.78,96.50 567.61,96.06 C 567.45,95.61 559.25,96.69 563.41,94.37 C 567.56,92.05 583.38,84.20 592.56,82.12 C 601.73,80.04 616.07,83.02 618.47,81.88 C 620.87,80.74 608.81,77.82 606.96,75.25 C 605.11,72.69 608.51,69.04 607.40,66.48 C 606.29,63.91 601.27,62.51 600.31,59.86 C 599.35,57.21 602.82,50.40 601.62,50.60 C 600.43,50.80 594.04,57.24 593.14,61.05 C 592.25,64.86 599.82,70.64 596.25,73.47 C 592.67,76.30 577.55,79.00 571.69,78.00 C 565.83,77.01 567.73,69.00 561.08,67.51 C 554.43,66.02 546.02,65.54 531.80,69.07 C 517.58,72.61 486.13,85.84 475.76,88.73 C 465.40,91.61 474.07,78.63 469.60,86.40 C 465.14,94.18 456.00,126.78 448.98,135.36 C 441.96,143.95 432.85,140.04 427.48,137.91 C 422.10,135.78 417.64,126.16 416.75,122.61 C 415.86,119.05 432.47,120.75 422.12,116.57 C 411.77,112.39 371.19,101.23 354.66,97.51 C 338.12,93.79 329.63,96.15 322.91,94.27 C 316.19,92.38 320.91,87.27 314.34,86.20 C 307.77,85.12 292.48,85.74 283.51,87.80 C 274.54,89.86 266.44,93.33 260.53,98.56 C 254.61,103.79 251.94,117.55 248.02,119.18 C 244.09,120.81 237.58,111.97 236.95,108.34 C 236.32,104.71 242.91,101.45 244.22,97.41 C 245.53,93.37 242.52,88.63 244.82,84.10 C 247.11,79.57 256.06,74.19 257.99,70.21 C 259.92,66.24 254.63,62.95 256.40,60.26 C 258.17,57.57 268.51,55.07 268.63,54.09 C 268.76,53.12 260.84,56.76 257.15,54.41 C 253.45,52.07 260.15,40.16 246.43,40.00 C 232.72,39.84 187.03,50.19 174.87,53.44 C 162.71,56.69 171.90,57.72 173.49,59.49 C 175.08,61.27 181.82,61.19 184.43,64.09 C 187.04,66.99 188.94,71.50 189.14,76.89 C 189.34,82.27 189.42,92.23 185.64,96.40 C 181.87,100.56 167.50,99.55 166.49,101.89 C 165.48,104.23 179.76,106.76 179.58,110.46 C 179.41,114.16 169.18,121.67 165.44,124.07 C 161.70,126.46 157.89,123.41 157.14,124.83 C 156.39,126.25 161.94,130.75 160.96,132.58 C 159.97,134.41 155.67,135.99 151.21,135.83 C 146.76,135.67 136.99,131.28 134.23,131.59 C 131.48,131.91 136.08,136.95 134.70,137.74 C 133.32,138.52 124.89,134.75 125.94,136.29 C 127.00,137.83 138.86,144.51 141.04,146.96 C 143.22,149.41 149.11,149.31 139.01,150.99 C 128.91,152.67 93.61,156.39 80.44,157.05 C 67.26,157.71 66.69,154.49 59.95,154.95 C 53.21,155.40 43.33,158.97 40.00,159.78 C 36.67,160.58 31.40,159.79 40.00,159.78 Z"
        fill="none"
        stroke="#ffffff"
        stroke-width="8"
        stroke-linejoin="round"
        stroke-linecap="round"/>
  <circle cx="264.99" cy="220.45" r="24" fill="none" stroke="#379cf4" stroke-width="6"/>
</svg>