<?xml version="1.0" encoding="UTF-8"?>
<svg xmlns="http://www.w3.org/2000/svg" viewBox="0 0 924 524" width="924" height="524">
  <title>Jezioro Rożnowskie - border</title>
  <defs>
    <mask id="lakeMask">
      <rect width="924" height="524" fill="white"/>
      <circle cx="343.60" cy="298.09" r="24" fill="black"/>
    </mask>
  </defs>
  <path mask="url(#lakeMask)" d="M 40.00,410.26 C 41.87,409.98 50.60,408.21 51.21,408.59 C 51.83,408.96 35.27,408.59 43.68,412.52 C 52.10,416.45 88.51,426.69 101.69,432.16 C 114.87,437.63 118.46,441.92 122.75,445.34 C 127.05,448.76 126.92,449.87 127.44,452.67 C 127.97,455.47 123.41,459.51 125.88,462.15 C 128.35,464.79 138.75,466.36 142.28,468.52 C 145.81,470.69 140.20,472.57 147.05,475.14 C 153.90,477.71 174.53,484.45 183.38,483.94 C 192.22,483.43 196.99,476.10 200.11,472.10 C 203.22,468.10 203.07,462.44 202.07,459.95 C 201.07,457.46 195.59,458.99 194.10,457.17 C 192.62,455.35 194.61,451.57 193.17,449.03 C 191.73,446.49 194.25,447.18 185.45,441.93 C 176.65,436.68 150.88,425.85 140.37,417.54 C 129.85,409.23 125.75,401.71 122.37,392.07 C 118.99,382.43 117.62,367.94 120.07,359.70 C 122.51,351.46 128.75,348.15 137.02,342.64 C 145.28,337.13 169.73,323.93 169.67,326.62 C 169.61,329.32 142.23,349.97 136.64,358.79 C 131.05,367.61 135.24,375.26 136.14,379.52 C 137.05,383.77 141.52,387.11 142.06,384.31 C 142.59,381.52 138.70,367.56 139.34,362.73 C 139.99,357.89 146.07,355.75 145.92,355.31 C 145.78,354.88 137.88,361.46 138.49,360.12 C 139.10,358.77 143.65,352.94 149.58,347.23 C 155.51,341.51 165.13,328.96 174.06,325.83 C 182.98,322.71 202.84,324.91 203.13,328.49 C 203.42,332.07 181.43,339.61 175.81,347.31 C 170.19,355.01 173.95,366.99 169.41,374.70 C 164.87,382.41 150.97,387.61 148.54,393.57 C 146.11,399.52 145.99,402.35 154.82,410.45 C 163.66,418.54 192.40,438.94 201.54,442.12 C 210.69,445.30 212.76,434.73 209.68,429.52 C 206.59,424.32 188.36,416.30 183.04,410.89 C 177.72,405.47 177.52,400.65 177.76,397.05 C 178.00,393.45 180.72,391.58 184.47,389.28 C 188.23,386.98 185.59,385.01 200.28,383.25 C 214.98,381.48 244.57,382.04 272.65,378.70 C 300.72,375.35 357.34,362.92 368.75,363.19 C 380.16,363.46 351.40,376.20 341.13,380.33 C 330.86,384.45 325.64,385.63 307.10,387.96 C 288.56,390.29 243.10,392.35 229.90,394.32 C 216.71,396.29 227.41,398.51 227.92,399.79 C 228.44,401.07 225.78,402.94 232.98,401.99 C 240.17,401.05 257.37,395.31 271.09,394.11 C 284.81,392.92 300.10,395.90 315.30,394.83 C 330.49,393.76 351.16,389.62 362.25,387.71 C 373.33,385.79 377.79,385.48 381.80,383.36 C 385.82,381.23 383.73,377.05 386.35,374.95 C 388.96,372.86 386.69,370.92 397.49,370.77 C 408.30,370.61 441.35,375.20 451.17,374.02 C 461.00,372.85 450.63,368.23 456.47,363.69 C 462.30,359.15 475.23,349.90 486.20,346.79 C 497.17,343.69 497.48,351.14 522.28,345.08 C 547.08,339.01 614.06,316.19 634.99,310.41 C 655.92,304.63 645.39,313.77 647.88,310.38 C 650.36,306.99 646.34,294.91 649.90,290.06 C 653.47,285.22 665.89,284.23 669.28,281.31 C 672.66,278.38 666.45,276.58 670.21,272.52 C 673.97,268.46 684.54,260.49 691.83,256.95 C 699.12,253.41 710.07,253.92 713.95,251.29 C 717.82,248.66 713.17,243.57 715.08,241.18 C 716.99,238.79 721.49,237.41 725.41,236.98 C 729.33,236.54 739.37,239.84 738.62,238.54 C 737.86,237.25 728.92,231.23 720.89,229.21 C 712.86,227.19 697.60,228.14 690.44,226.42 C 683.28,224.69 680.23,221.40 677.92,218.88 C 675.62,216.37 676.02,214.46 676.60,211.31 C 677.19,208.17 677.39,203.54 681.43,200.01 C 685.47,196.49 695.19,191.02 700.85,190.15 C 706.52,189.29 709.26,195.04 715.41,194.82 C 721.57,194.60 730.94,191.80 737.80,188.84 C 744.66,185.89 754.63,180.11 756.59,177.09 C 758.56,174.07 750.60,172.64 749.58,170.73 C 748.56,168.83 753.33,168.19 750.46,165.67 C 747.59,163.14 731.03,157.36 732.34,155.60 C 733.66,153.84 757.75,156.62 758.32,155.10 C 758.89,153.58 723.93,150.87 735.75,146.46 C 747.57,142.05 807.58,131.95 829.27,128.63 C 850.96,125.30 858.04,128.00 865.91,126.51 C 873.79,125.02 873.51,120.31 876.52,119.69 C 879.52,119.07 885.75,123.31 883.93,122.79 C 882.11,122.28 868.06,118.48 865.59,116.60 C 863.12,114.72 869.89,111.48 869.13,111.51 C 868.37,111.54 868.09,115.88 861.02,116.78 C 853.96,117.69 832.10,117.66 826.76,116.96 C 821.42,116.26 831.77,112.11 828.99,112.56 C 826.20,113.02 828.17,117.79 810.03,119.68 C 791.89,121.57 736.67,124.34 720.14,123.91 C 703.61,123.48 713.32,116.63 710.84,117.10 C 708.36,117.56 708.33,124.93 705.28,126.69 C 702.22,128.45 700.65,129.06 692.49,127.66 C 684.33,126.27 665.69,119.40 656.31,118.32 C 646.93,117.23 639.55,121.96 636.22,121.15 C 632.89,120.34 637.49,113.87 636.33,113.44 C 635.16,113.01 634.49,117.88 629.23,118.56 C 623.97,119.25 611.51,115.85 604.78,117.56 C 598.05,119.26 597.71,126.64 588.85,128.77 C 579.99,130.90 569.85,127.77 551.62,130.33 C 533.39,132.90 492.79,143.19 479.50,144.18 C 466.21,145.17 471.62,138.42 471.86,136.27 C 472.09,134.13 481.52,132.27 480.91,131.32 C 480.30,130.37 470.28,131.92 468.20,130.59 C 466.12,129.26 470.06,125.42 468.44,123.34 C 466.82,121.26 460.15,122.86 458.48,118.12 C 456.80,113.39 461.72,102.07 458.39,94.95 C 455.07,87.82 442.35,80.30 438.54,75.36 C 434.73,70.41 440.87,69.65 435.55,65.28 C 430.23,60.91 418.25,53.33 406.61,49.13 C 394.96,44.92 381.11,39.23 365.69,40.05 C 350.27,40.87 325.89,48.90 314.10,54.04 C 302.31,59.18 298.86,66.26 294.94,70.90 C 291.02,75.53 293.71,78.50 290.59,81.84 C 287.48,85.18 286.23,90.18 276.26,90.92 C 266.30,91.66 239.94,88.14 230.83,86.26 C 221.73,84.38 232.74,81.02 221.64,79.64 C 210.55,78.27 172.40,74.75 164.25,78.02 C 156.10,81.30 166.37,92.91 172.72,99.31 C 179.08,105.70 187.47,111.86 202.36,116.42 C 217.25,120.98 247.88,125.25 262.05,126.68 C 276.22,128.11 282.48,124.56 287.35,124.98 C 292.23,125.40 290.49,129.70 291.29,129.19 C 292.09,128.68 279.54,127.83 292.18,121.92 C 304.82,116.02 349.83,98.83 367.11,93.76 C 384.39,88.69 386.90,90.89 395.87,91.49 C 404.83,92.09 415.67,95.51 420.87,97.38 C 426.08,99.25 425.81,99.88 427.09,102.73 C 428.36,105.57 430.94,108.12 428.50,114.44 C 426.07,120.77 410.99,131.92 412.46,140.69 C 413.94,149.46 431.72,162.36 437.36,167.06 C 442.99,171.76 445.12,168.12 446.26,168.90 C 447.40,169.69 442.78,171.47 444.20,171.76 C 445.61,172.05 444.77,168.58 454.77,170.63 C 464.78,172.68 494.44,182.75 504.22,184.07 C 514.00,185.38 505.42,179.96 513.45,178.50 C 521.47,177.04 538.93,174.95 552.36,175.30 C 565.79,175.66 584.31,180.37 594.03,180.65 C 603.76,180.93 608.01,179.43 610.72,177.00 C 613.43,174.56 608.72,167.82 610.28,166.05 C 611.85,164.28 619.77,161.84 620.12,166.37 C 620.46,170.90 611.81,188.20 612.35,193.24 C 612.89,198.29 620.54,192.99 623.38,196.63 C 626.21,200.28 630.24,211.17 629.36,215.11 C 628.48,219.04 620.22,218.24 618.11,220.24 C 616.00,222.24 619.31,223.69 616.70,227.13 C 614.10,230.58 608.92,236.85 602.47,240.90 C 596.03,244.95 582.61,247.16 578.04,251.42 C 573.46,255.68 595.40,262.72 575.02,266.47 C 554.65,270.22 478.48,271.29 455.77,273.93 C 433.07,276.57 443.34,277.48 438.79,282.32 C 434.25,287.16 437.34,296.85 428.49,302.98 C 419.65,309.11 394.44,316.32 385.74,319.09 C 377.04,321.86 384.06,322.63 376.30,319.61 C 368.55,316.59 349.41,303.72 339.23,300.98 C 329.05,298.24 322.12,300.99 315.22,303.20 C 308.31,305.41 309.47,310.85 297.81,314.25 C 286.15,317.66 272.53,322.35 245.24,323.63 C 217.95,324.90 154.47,321.30 134.06,321.91 C 113.64,322.51 124.94,324.12 122.75,327.27 C 120.56,330.42 128.26,337.06 120.90,340.80 C 113.53,344.53 89.19,346.58 78.54,349.69 C 67.89,352.80 61.03,354.47 57.01,359.43 C 52.99,364.39 55.59,375.96 54.42,379.46 C 53.25,382.95 49.50,379.14 49.98,380.41 C 50.46,381.69 57.79,384.75 57.30,387.13 C 56.81,389.50 47.56,393.39 47.06,394.68 C 46.57,395.97 54.35,392.67 54.33,394.88 C 54.31,397.10 49.32,405.40 46.93,407.96 C 44.54,410.53 41.15,409.88 40.00,410.26 C 38.85,410.64 38.13,410.54 40.00,410.26 Z"
        fill="none"
        stroke="#ffffff"
        stroke-width="8"
        stroke-linejoin="round"
        stroke-linecap="round"/>
  <circle cx="343.60" cy="298.09" r="24" fill="none" stroke="#379cf4" stroke-width="6"/>
</svg>